<mxfile host="app.diagrams.net" modified="2023-07-28T14:34:15.740Z" agent="Mozilla/5.0 (Windows NT 10.0; Win64; x64) AppleWebKit/537.36 (KHTML, like Gecko) Chrome/115.0.0.0 Safari/537.36 Edg/115.0.1901.183" etag="XTSjqDxW1s6P0xpLxkfg" version="21.6.5" type="device">
  <diagram id="C5RBs43oDa-KdzZeNtuy" name="Page-1">
    <mxGraphModel dx="1434" dy="796" grid="1" gridSize="10" guides="1" tooltips="1" connect="1" arrows="1" fold="1" page="1" pageScale="1" pageWidth="827" pageHeight="1169" math="0" shadow="0">
      <root>
        <mxCell id="WIyWlLk6GJQsqaUBKTNV-0" />
        <mxCell id="WIyWlLk6GJQsqaUBKTNV-1" parent="WIyWlLk6GJQsqaUBKTNV-0" />
        <mxCell id="zkfFHV4jXpPFQw0GAbJ--0" value="Card" style="swimlane;fontStyle=2;align=center;verticalAlign=top;childLayout=stackLayout;horizontal=1;startSize=26;horizontalStack=0;resizeParent=1;resizeLast=0;collapsible=1;marginBottom=0;rounded=0;shadow=0;strokeWidth=1;" parent="WIyWlLk6GJQsqaUBKTNV-1" vertex="1">
          <mxGeometry x="313" y="33" width="160" height="80" as="geometry">
            <mxRectangle x="320" y="20" width="160" height="26" as="alternateBounds" />
          </mxGeometry>
        </mxCell>
        <mxCell id="zkfFHV4jXpPFQw0GAbJ--4" value="" style="line;html=1;strokeWidth=1;align=left;verticalAlign=middle;spacingTop=-1;spacingLeft=3;spacingRight=3;rotatable=0;labelPosition=right;points=[];portConstraint=eastwest;" parent="zkfFHV4jXpPFQw0GAbJ--0" vertex="1">
          <mxGeometry y="26" width="160" height="8" as="geometry" />
        </mxCell>
        <mxCell id="5E6ZCyzv3T3u2Q4gBt_e-0" value="+set_comment(str)" style="text;html=1;align=center;verticalAlign=middle;resizable=0;points=[];autosize=1;strokeColor=none;fillColor=none;" parent="zkfFHV4jXpPFQw0GAbJ--0" vertex="1">
          <mxGeometry y="34" width="160" height="30" as="geometry" />
        </mxCell>
        <mxCell id="zkfFHV4jXpPFQw0GAbJ--6" value="Cell" style="swimlane;fontStyle=0;align=center;verticalAlign=top;childLayout=stackLayout;horizontal=1;startSize=26;horizontalStack=0;resizeParent=1;resizeLast=0;collapsible=1;marginBottom=0;rounded=0;shadow=0;strokeWidth=1;" parent="WIyWlLk6GJQsqaUBKTNV-1" vertex="1">
          <mxGeometry x="100" y="169" width="160" height="124" as="geometry">
            <mxRectangle x="80" y="241" width="160" height="26" as="alternateBounds" />
          </mxGeometry>
        </mxCell>
        <mxCell id="5E6ZCyzv3T3u2Q4gBt_e-24" value="+fill&lt;br&gt;+fill_range&lt;br&gt;+universe" style="text;html=1;align=center;verticalAlign=middle;resizable=0;points=[];autosize=1;strokeColor=none;fillColor=none;" parent="zkfFHV4jXpPFQw0GAbJ--6" vertex="1">
          <mxGeometry y="26" width="160" height="60" as="geometry" />
        </mxCell>
        <mxCell id="zkfFHV4jXpPFQw0GAbJ--9" value="" style="line;html=1;strokeWidth=1;align=left;verticalAlign=middle;spacingTop=-1;spacingLeft=3;spacingRight=3;rotatable=0;labelPosition=right;points=[];portConstraint=eastwest;" parent="zkfFHV4jXpPFQw0GAbJ--6" vertex="1">
          <mxGeometry y="86" width="160" height="8" as="geometry" />
        </mxCell>
        <mxCell id="5aphuce7C4MxXCkHs1r1-59" value="Extends" style="endArrow=block;endSize=16;endFill=0;html=1;rounded=0;entryX=0.25;entryY=1;entryDx=0;entryDy=0;" parent="zkfFHV4jXpPFQw0GAbJ--6" target="zkfFHV4jXpPFQw0GAbJ--0" edge="1">
          <mxGeometry x="-0.8582" width="160" relative="1" as="geometry">
            <mxPoint x="80" y="-1" as="sourcePoint" />
            <mxPoint x="240" y="-1" as="targetPoint" />
            <Array as="points">
              <mxPoint x="80" y="-19" />
              <mxPoint x="253" y="-19" />
            </Array>
            <mxPoint as="offset" />
          </mxGeometry>
        </mxCell>
        <mxCell id="5E6ZCyzv3T3u2Q4gBt_e-1" value="+__init__(str)" style="text;html=1;align=center;verticalAlign=middle;resizable=0;points=[];autosize=1;strokeColor=none;fillColor=none;" parent="zkfFHV4jXpPFQw0GAbJ--6" vertex="1">
          <mxGeometry y="94" width="160" height="30" as="geometry" />
        </mxCell>
        <mxCell id="zkfFHV4jXpPFQw0GAbJ--13" value="Surface" style="swimlane;fontStyle=0;align=center;verticalAlign=top;childLayout=stackLayout;horizontal=1;startSize=26;horizontalStack=0;resizeParent=1;resizeLast=0;collapsible=1;marginBottom=0;rounded=0;shadow=0;strokeWidth=1;" parent="WIyWlLk6GJQsqaUBKTNV-1" vertex="1">
          <mxGeometry x="314" y="170" width="160" height="154" as="geometry">
            <mxRectangle x="320" y="240" width="170" height="26" as="alternateBounds" />
          </mxGeometry>
        </mxCell>
        <mxCell id="5aphuce7C4MxXCkHs1r1-60" value="Extends" style="endArrow=block;endSize=16;endFill=0;html=1;rounded=0;entryX=0.5;entryY=1;entryDx=0;entryDy=0;" parent="zkfFHV4jXpPFQw0GAbJ--13" target="zkfFHV4jXpPFQw0GAbJ--0" edge="1">
          <mxGeometry x="-0.5122" width="160" relative="1" as="geometry">
            <mxPoint x="80" as="sourcePoint" />
            <mxPoint x="240" as="targetPoint" />
            <mxPoint as="offset" />
          </mxGeometry>
        </mxCell>
        <mxCell id="5E6ZCyzv3T3u2Q4gBt_e-28" value="+number&lt;br&gt;+mnemonic&lt;br&gt;+dimensions" style="text;html=1;align=center;verticalAlign=middle;resizable=0;points=[];autosize=1;strokeColor=none;fillColor=none;" parent="zkfFHV4jXpPFQw0GAbJ--13" vertex="1">
          <mxGeometry y="26" width="160" height="60" as="geometry" />
        </mxCell>
        <mxCell id="zkfFHV4jXpPFQw0GAbJ--15" value="" style="line;html=1;strokeWidth=1;align=left;verticalAlign=middle;spacingTop=-1;spacingLeft=3;spacingRight=3;rotatable=0;labelPosition=right;points=[];portConstraint=eastwest;" parent="zkfFHV4jXpPFQw0GAbJ--13" vertex="1">
          <mxGeometry y="86" width="160" height="8" as="geometry" />
        </mxCell>
        <mxCell id="5E6ZCyzv3T3u2Q4gBt_e-26" value="+__init__(str)" style="text;html=1;align=center;verticalAlign=middle;resizable=0;points=[];autosize=1;strokeColor=none;fillColor=none;" parent="zkfFHV4jXpPFQw0GAbJ--13" vertex="1">
          <mxGeometry y="94" width="160" height="30" as="geometry" />
        </mxCell>
        <mxCell id="5E6ZCyzv3T3u2Q4gBt_e-25" value="+__str()__" style="text;html=1;align=center;verticalAlign=middle;resizable=0;points=[];autosize=1;strokeColor=none;fillColor=none;" parent="zkfFHV4jXpPFQw0GAbJ--13" vertex="1">
          <mxGeometry y="124" width="160" height="30" as="geometry" />
        </mxCell>
        <mxCell id="zkfFHV4jXpPFQw0GAbJ--17" value="DataCard" style="swimlane;fontStyle=0;align=center;verticalAlign=top;childLayout=stackLayout;horizontal=1;startSize=26;horizontalStack=0;resizeParent=1;resizeLast=0;collapsible=1;marginBottom=0;rounded=0;shadow=0;strokeWidth=1;" parent="WIyWlLk6GJQsqaUBKTNV-1" vertex="1">
          <mxGeometry x="301.5" y="580" width="183" height="68" as="geometry">
            <mxRectangle x="560" y="242" width="160" height="26" as="alternateBounds" />
          </mxGeometry>
        </mxCell>
        <mxCell id="zkfFHV4jXpPFQw0GAbJ--23" value="" style="line;html=1;strokeWidth=1;align=left;verticalAlign=middle;spacingTop=-1;spacingLeft=3;spacingRight=3;rotatable=0;labelPosition=right;points=[];portConstraint=eastwest;" parent="zkfFHV4jXpPFQw0GAbJ--17" vertex="1">
          <mxGeometry y="26" width="183" height="8" as="geometry" />
        </mxCell>
        <mxCell id="5E6ZCyzv3T3u2Q4gBt_e-40" value="+__init__(str)" style="text;html=1;align=center;verticalAlign=middle;resizable=0;points=[];autosize=1;strokeColor=none;fillColor=none;" parent="zkfFHV4jXpPFQw0GAbJ--17" vertex="1">
          <mxGeometry y="34" width="183" height="30" as="geometry" />
        </mxCell>
        <mxCell id="5aphuce7C4MxXCkHs1r1-21" value="KCode" style="swimlane;fontStyle=1;align=center;verticalAlign=top;childLayout=stackLayout;horizontal=1;startSize=26;horizontalStack=0;resizeParent=1;resizeParentMax=0;resizeLast=0;collapsible=1;marginBottom=0;whiteSpace=wrap;html=1;" parent="WIyWlLk6GJQsqaUBKTNV-1" vertex="1">
          <mxGeometry x="9" y="792" width="160" height="90" as="geometry" />
        </mxCell>
        <mxCell id="5aphuce7C4MxXCkHs1r1-23" value="" style="line;strokeWidth=1;fillColor=none;align=left;verticalAlign=middle;spacingTop=-1;spacingLeft=3;spacingRight=3;rotatable=0;labelPosition=right;points=[];portConstraint=eastwest;strokeColor=inherit;" parent="5aphuce7C4MxXCkHs1r1-21" vertex="1">
          <mxGeometry y="26" width="160" height="64" as="geometry" />
        </mxCell>
        <mxCell id="5aphuce7C4MxXCkHs1r1-73" value="Extends" style="endArrow=block;endSize=16;endFill=0;html=1;rounded=0;" parent="5aphuce7C4MxXCkHs1r1-21" edge="1">
          <mxGeometry x="-0.8926" y="2" width="160" relative="1" as="geometry">
            <mxPoint x="80" y="-2" as="sourcePoint" />
            <mxPoint x="310" y="-142" as="targetPoint" />
            <Array as="points">
              <mxPoint x="80" y="-102" />
              <mxPoint x="310" y="-102" />
            </Array>
            <mxPoint as="offset" />
          </mxGeometry>
        </mxCell>
        <mxCell id="5aphuce7C4MxXCkHs1r1-30" value="Material" style="swimlane;fontStyle=1;align=center;verticalAlign=top;childLayout=stackLayout;horizontal=1;startSize=26;horizontalStack=0;resizeParent=1;resizeParentMax=0;resizeLast=0;collapsible=1;marginBottom=0;whiteSpace=wrap;html=1;" parent="WIyWlLk6GJQsqaUBKTNV-1" vertex="1">
          <mxGeometry x="109" y="970" width="160" height="104" as="geometry" />
        </mxCell>
        <mxCell id="5aphuce7C4MxXCkHs1r1-76" value="Extends" style="endArrow=block;endSize=16;endFill=0;html=1;rounded=0;" parent="5aphuce7C4MxXCkHs1r1-30" edge="1">
          <mxGeometry x="-0.9333" width="160" relative="1" as="geometry">
            <mxPoint x="80" as="sourcePoint" />
            <mxPoint x="230" y="-320" as="targetPoint" />
            <Array as="points">
              <mxPoint x="80" y="-40" />
              <mxPoint x="80" y="-80" />
              <mxPoint x="80" y="-260" />
              <mxPoint x="230" y="-260" />
            </Array>
            <mxPoint as="offset" />
          </mxGeometry>
        </mxCell>
        <mxCell id="5E6ZCyzv3T3u2Q4gBt_e-53" value="+number&lt;br&gt;+zaid_fracs" style="text;html=1;align=center;verticalAlign=middle;resizable=0;points=[];autosize=1;strokeColor=none;fillColor=none;" parent="5aphuce7C4MxXCkHs1r1-30" vertex="1">
          <mxGeometry y="26" width="160" height="40" as="geometry" />
        </mxCell>
        <mxCell id="5aphuce7C4MxXCkHs1r1-32" value="" style="line;strokeWidth=1;fillColor=none;align=left;verticalAlign=middle;spacingTop=-1;spacingLeft=3;spacingRight=3;rotatable=0;labelPosition=right;points=[];portConstraint=eastwest;strokeColor=inherit;" parent="5aphuce7C4MxXCkHs1r1-30" vertex="1">
          <mxGeometry y="66" width="160" height="8" as="geometry" />
        </mxCell>
        <mxCell id="5E6ZCyzv3T3u2Q4gBt_e-51" value="+__str()__" style="text;html=1;align=center;verticalAlign=middle;resizable=0;points=[];autosize=1;strokeColor=none;fillColor=none;" parent="5aphuce7C4MxXCkHs1r1-30" vertex="1">
          <mxGeometry y="74" width="160" height="30" as="geometry" />
        </mxCell>
        <mxCell id="5aphuce7C4MxXCkHs1r1-34" value="Temperature" style="swimlane;fontStyle=1;align=center;verticalAlign=top;childLayout=stackLayout;horizontal=1;startSize=26;horizontalStack=0;resizeParent=1;resizeParentMax=0;resizeLast=0;collapsible=1;marginBottom=0;whiteSpace=wrap;html=1;" parent="WIyWlLk6GJQsqaUBKTNV-1" vertex="1">
          <mxGeometry x="409" y="792" width="160" height="104" as="geometry" />
        </mxCell>
        <mxCell id="5E6ZCyzv3T3u2Q4gBt_e-52" value="+number&lt;br&gt;+param" style="text;html=1;align=center;verticalAlign=middle;resizable=0;points=[];autosize=1;strokeColor=none;fillColor=none;" parent="5aphuce7C4MxXCkHs1r1-34" vertex="1">
          <mxGeometry y="26" width="160" height="40" as="geometry" />
        </mxCell>
        <mxCell id="5aphuce7C4MxXCkHs1r1-36" value="" style="line;strokeWidth=1;fillColor=none;align=left;verticalAlign=middle;spacingTop=-1;spacingLeft=3;spacingRight=3;rotatable=0;labelPosition=right;points=[];portConstraint=eastwest;strokeColor=inherit;" parent="5aphuce7C4MxXCkHs1r1-34" vertex="1">
          <mxGeometry y="66" width="160" height="8" as="geometry" />
        </mxCell>
        <mxCell id="5aphuce7C4MxXCkHs1r1-81" value="Extends" style="endArrow=block;endSize=16;endFill=0;html=1;rounded=0;" parent="5aphuce7C4MxXCkHs1r1-34" edge="1">
          <mxGeometry x="-0.8182" width="160" relative="1" as="geometry">
            <mxPoint x="80" y="-2" as="sourcePoint" />
            <mxPoint x="20" y="-142" as="targetPoint" />
            <Array as="points">
              <mxPoint x="80" y="-72" />
              <mxPoint x="20" y="-72" />
            </Array>
            <mxPoint as="offset" />
          </mxGeometry>
        </mxCell>
        <mxCell id="5E6ZCyzv3T3u2Q4gBt_e-50" value="+__str()__" style="text;html=1;align=center;verticalAlign=middle;resizable=0;points=[];autosize=1;strokeColor=none;fillColor=none;" parent="5aphuce7C4MxXCkHs1r1-34" vertex="1">
          <mxGeometry y="74" width="160" height="30" as="geometry" />
        </mxCell>
        <mxCell id="5aphuce7C4MxXCkHs1r1-44" value="Mode" style="swimlane;fontStyle=1;align=center;verticalAlign=top;childLayout=stackLayout;horizontal=1;startSize=26;horizontalStack=0;resizeParent=1;resizeParentMax=0;resizeLast=0;collapsible=1;marginBottom=0;whiteSpace=wrap;html=1;" parent="WIyWlLk6GJQsqaUBKTNV-1" vertex="1">
          <mxGeometry x="313" y="970" width="160" height="94" as="geometry" />
        </mxCell>
        <mxCell id="5aphuce7C4MxXCkHs1r1-80" value="Extends" style="endArrow=block;endSize=16;endFill=0;html=1;rounded=0;entryX=0.5;entryY=1;entryDx=0;entryDy=0;" parent="5aphuce7C4MxXCkHs1r1-44" target="zkfFHV4jXpPFQw0GAbJ--17" edge="1">
          <mxGeometry x="-0.9311" width="160" relative="1" as="geometry">
            <mxPoint x="80" as="sourcePoint" />
            <mxPoint x="20" y="-320" as="targetPoint" />
            <Array as="points">
              <mxPoint x="80" y="-40" />
              <mxPoint x="80" y="-80" />
            </Array>
            <mxPoint as="offset" />
          </mxGeometry>
        </mxCell>
        <mxCell id="5E6ZCyzv3T3u2Q4gBt_e-47" value="+param" style="text;html=1;align=center;verticalAlign=middle;resizable=0;points=[];autosize=1;strokeColor=none;fillColor=none;" parent="5aphuce7C4MxXCkHs1r1-44" vertex="1">
          <mxGeometry y="26" width="160" height="30" as="geometry" />
        </mxCell>
        <mxCell id="5aphuce7C4MxXCkHs1r1-46" value="" style="line;strokeWidth=1;fillColor=none;align=left;verticalAlign=middle;spacingTop=-1;spacingLeft=3;spacingRight=3;rotatable=0;labelPosition=right;points=[];portConstraint=eastwest;strokeColor=inherit;" parent="5aphuce7C4MxXCkHs1r1-44" vertex="1">
          <mxGeometry y="56" width="160" height="8" as="geometry" />
        </mxCell>
        <mxCell id="5E6ZCyzv3T3u2Q4gBt_e-46" value="+__str()__" style="text;html=1;align=center;verticalAlign=middle;resizable=0;points=[];autosize=1;strokeColor=none;fillColor=none;" parent="5aphuce7C4MxXCkHs1r1-44" vertex="1">
          <mxGeometry y="64" width="160" height="30" as="geometry" />
        </mxCell>
        <mxCell id="5aphuce7C4MxXCkHs1r1-48" value="Transform" style="swimlane;fontStyle=1;align=center;verticalAlign=top;childLayout=stackLayout;horizontal=1;startSize=26;horizontalStack=0;resizeParent=1;resizeParentMax=0;resizeLast=0;collapsible=1;marginBottom=0;whiteSpace=wrap;html=1;" parent="WIyWlLk6GJQsqaUBKTNV-1" vertex="1">
          <mxGeometry x="619" y="792" width="160" height="94" as="geometry" />
        </mxCell>
        <mxCell id="5E6ZCyzv3T3u2Q4gBt_e-44" value="+param" style="text;html=1;align=center;verticalAlign=middle;resizable=0;points=[];autosize=1;strokeColor=none;fillColor=none;" parent="5aphuce7C4MxXCkHs1r1-48" vertex="1">
          <mxGeometry y="26" width="160" height="30" as="geometry" />
        </mxCell>
        <mxCell id="5aphuce7C4MxXCkHs1r1-50" value="" style="line;strokeWidth=1;fillColor=none;align=left;verticalAlign=middle;spacingTop=-1;spacingLeft=3;spacingRight=3;rotatable=0;labelPosition=right;points=[];portConstraint=eastwest;strokeColor=inherit;" parent="5aphuce7C4MxXCkHs1r1-48" vertex="1">
          <mxGeometry y="56" width="160" height="8" as="geometry" />
        </mxCell>
        <mxCell id="5aphuce7C4MxXCkHs1r1-78" value="Extends" style="endArrow=block;endSize=16;endFill=0;html=1;rounded=0;" parent="5aphuce7C4MxXCkHs1r1-48" edge="1">
          <mxGeometry x="-0.8889" width="160" relative="1" as="geometry">
            <mxPoint x="80" y="-2" as="sourcePoint" />
            <mxPoint x="-150" y="-142" as="targetPoint" />
            <Array as="points">
              <mxPoint x="80" y="-102" />
              <mxPoint x="-150" y="-102" />
            </Array>
            <mxPoint as="offset" />
          </mxGeometry>
        </mxCell>
        <mxCell id="5E6ZCyzv3T3u2Q4gBt_e-45" value="+__str()__" style="text;html=1;align=center;verticalAlign=middle;resizable=0;points=[];autosize=1;strokeColor=none;fillColor=none;" parent="5aphuce7C4MxXCkHs1r1-48" vertex="1">
          <mxGeometry y="64" width="160" height="30" as="geometry" />
        </mxCell>
        <mxCell id="5aphuce7C4MxXCkHs1r1-52" value="Option" style="swimlane;fontStyle=1;align=center;verticalAlign=top;childLayout=stackLayout;horizontal=1;startSize=26;horizontalStack=0;resizeParent=1;resizeParentMax=0;resizeLast=0;collapsible=1;marginBottom=0;whiteSpace=wrap;html=1;" parent="WIyWlLk6GJQsqaUBKTNV-1" vertex="1">
          <mxGeometry x="519" y="970" width="160" height="94" as="geometry" />
        </mxCell>
        <mxCell id="5E6ZCyzv3T3u2Q4gBt_e-48" value="+param" style="text;html=1;align=center;verticalAlign=middle;resizable=0;points=[];autosize=1;strokeColor=none;fillColor=none;" parent="5aphuce7C4MxXCkHs1r1-52" vertex="1">
          <mxGeometry y="26" width="160" height="30" as="geometry" />
        </mxCell>
        <mxCell id="5aphuce7C4MxXCkHs1r1-54" value="" style="line;strokeWidth=1;fillColor=none;align=left;verticalAlign=middle;spacingTop=-1;spacingLeft=3;spacingRight=3;rotatable=0;labelPosition=right;points=[];portConstraint=eastwest;strokeColor=inherit;" parent="5aphuce7C4MxXCkHs1r1-52" vertex="1">
          <mxGeometry y="56" width="160" height="8" as="geometry" />
        </mxCell>
        <mxCell id="5E6ZCyzv3T3u2Q4gBt_e-49" value="+__str()__" style="text;html=1;align=center;verticalAlign=middle;resizable=0;points=[];autosize=1;strokeColor=none;fillColor=none;" parent="5aphuce7C4MxXCkHs1r1-52" vertex="1">
          <mxGeometry y="64" width="160" height="30" as="geometry" />
        </mxCell>
        <mxCell id="5aphuce7C4MxXCkHs1r1-57" value="Extends" style="endArrow=block;endSize=16;endFill=0;html=1;rounded=0;exitX=0.5;exitY=0;exitDx=0;exitDy=0;" parent="WIyWlLk6GJQsqaUBKTNV-1" edge="1">
          <mxGeometry x="-0.7647" width="160" relative="1" as="geometry">
            <mxPoint x="80" y="383" as="sourcePoint" />
            <mxPoint x="150" y="293" as="targetPoint" />
            <Array as="points">
              <mxPoint x="80" y="343" />
              <mxPoint x="150" y="343" />
            </Array>
            <mxPoint as="offset" />
          </mxGeometry>
        </mxCell>
        <mxCell id="5aphuce7C4MxXCkHs1r1-72" value="Extends" style="endArrow=block;endSize=16;endFill=0;html=1;rounded=0;entryX=0.75;entryY=1;entryDx=0;entryDy=0;exitX=1;exitY=0.5;exitDx=0;exitDy=0;" parent="WIyWlLk6GJQsqaUBKTNV-1" source="zkfFHV4jXpPFQw0GAbJ--17" target="zkfFHV4jXpPFQw0GAbJ--0" edge="1">
          <mxGeometry x="-0.8686" y="4" width="160" relative="1" as="geometry">
            <mxPoint x="390" y="550" as="sourcePoint" />
            <mxPoint x="554" y="550" as="targetPoint" />
            <Array as="points">
              <mxPoint x="580" y="614" />
              <mxPoint x="580" y="500" />
              <mxPoint x="580" y="420" />
              <mxPoint x="580" y="150" />
              <mxPoint x="433" y="150" />
            </Array>
            <mxPoint x="1" as="offset" />
          </mxGeometry>
        </mxCell>
        <mxCell id="5aphuce7C4MxXCkHs1r1-58" value="Extends" style="endArrow=block;endSize=16;endFill=0;html=1;rounded=0;exitX=0.5;exitY=0;exitDx=0;exitDy=0;" parent="WIyWlLk6GJQsqaUBKTNV-1" edge="1">
          <mxGeometry x="-0.8788" width="160" relative="1" as="geometry">
            <mxPoint x="440" y="383" as="sourcePoint" />
            <mxPoint x="210" y="293" as="targetPoint" />
            <Array as="points">
              <mxPoint x="440" y="343" />
              <mxPoint x="210" y="343" />
            </Array>
            <mxPoint as="offset" />
          </mxGeometry>
        </mxCell>
        <mxCell id="5aphuce7C4MxXCkHs1r1-74" value="Extends" style="endArrow=block;endSize=16;endFill=0;html=1;rounded=0;" parent="WIyWlLk6GJQsqaUBKTNV-1" edge="1">
          <mxGeometry x="-0.8" width="160" relative="1" as="geometry">
            <mxPoint x="299" y="790" as="sourcePoint" />
            <mxPoint x="359" y="650" as="targetPoint" />
            <Array as="points">
              <mxPoint x="299" y="720" />
              <mxPoint x="359" y="720" />
            </Array>
            <mxPoint as="offset" />
          </mxGeometry>
        </mxCell>
        <mxCell id="5aphuce7C4MxXCkHs1r1-79" value="Extends" style="endArrow=block;endSize=16;endFill=0;html=1;rounded=0;exitX=0.5;exitY=0;exitDx=0;exitDy=0;" parent="WIyWlLk6GJQsqaUBKTNV-1" source="5aphuce7C4MxXCkHs1r1-52" edge="1">
          <mxGeometry x="-0.9332" width="160" relative="1" as="geometry">
            <mxPoint x="689" y="970" as="sourcePoint" />
            <mxPoint x="449" y="650" as="targetPoint" />
            <Array as="points">
              <mxPoint x="599" y="931" />
              <mxPoint x="599" y="701" />
              <mxPoint x="449" y="700" />
            </Array>
            <mxPoint as="offset" />
          </mxGeometry>
        </mxCell>
        <mxCell id="5aphuce7C4MxXCkHs1r1-94" value="CardFactory" style="swimlane;fontStyle=1;align=center;verticalAlign=top;childLayout=stackLayout;horizontal=1;startSize=26;horizontalStack=0;resizeParent=1;resizeParentMax=0;resizeLast=0;collapsible=1;marginBottom=0;whiteSpace=wrap;html=1;" parent="WIyWlLk6GJQsqaUBKTNV-1" vertex="1">
          <mxGeometry x="59" y="30" width="160" height="86" as="geometry" />
        </mxCell>
        <mxCell id="5aphuce7C4MxXCkHs1r1-95" value="+ CardRegexs" style="text;strokeColor=none;fillColor=none;align=left;verticalAlign=top;spacingLeft=4;spacingRight=4;overflow=hidden;rotatable=0;points=[[0,0.5],[1,0.5]];portConstraint=eastwest;whiteSpace=wrap;html=1;" parent="5aphuce7C4MxXCkHs1r1-94" vertex="1">
          <mxGeometry y="26" width="160" height="26" as="geometry" />
        </mxCell>
        <mxCell id="5aphuce7C4MxXCkHs1r1-96" value="" style="line;strokeWidth=1;fillColor=none;align=left;verticalAlign=middle;spacingTop=-1;spacingLeft=3;spacingRight=3;rotatable=0;labelPosition=right;points=[];portConstraint=eastwest;strokeColor=inherit;" parent="5aphuce7C4MxXCkHs1r1-94" vertex="1">
          <mxGeometry y="52" width="160" height="8" as="geometry" />
        </mxCell>
        <mxCell id="5aphuce7C4MxXCkHs1r1-97" value="+ create_card(str): Card" style="text;strokeColor=none;fillColor=none;align=left;verticalAlign=top;spacingLeft=4;spacingRight=4;overflow=hidden;rotatable=0;points=[[0,0.5],[1,0.5]];portConstraint=eastwest;whiteSpace=wrap;html=1;" parent="5aphuce7C4MxXCkHs1r1-94" vertex="1">
          <mxGeometry y="60" width="160" height="26" as="geometry" />
        </mxCell>
        <mxCell id="5aphuce7C4MxXCkHs1r1-98" value="Use" style="endArrow=open;endSize=12;dashed=1;html=1;rounded=0;" parent="WIyWlLk6GJQsqaUBKTNV-1" edge="1">
          <mxGeometry width="160" relative="1" as="geometry">
            <mxPoint x="219" y="73" as="sourcePoint" />
            <mxPoint x="309" y="73" as="targetPoint" />
          </mxGeometry>
        </mxCell>
        <mxCell id="YjN0Pw61o81FQpMhi5E2-4" value="Extends" style="endArrow=block;endSize=16;endFill=0;html=1;rounded=0;exitX=0.5;exitY=0;exitDx=0;exitDy=0;entryX=0.5;entryY=1;entryDx=0;entryDy=0;" parent="WIyWlLk6GJQsqaUBKTNV-1" target="zkfFHV4jXpPFQw0GAbJ--6" edge="1">
          <mxGeometry x="-0.8788" width="160" relative="1" as="geometry">
            <mxPoint x="260" y="383" as="sourcePoint" />
            <mxPoint x="220" y="303" as="targetPoint" />
            <Array as="points">
              <mxPoint x="260" y="363" />
              <mxPoint x="180" y="363" />
            </Array>
            <mxPoint as="offset" />
          </mxGeometry>
        </mxCell>
        <mxCell id="YjN0Pw61o81FQpMhi5E2-5" value="&lt;div style=&quot;&quot;&gt;&lt;span style=&quot;font-size: 28px;&quot;&gt;&lt;b&gt;MUSE&lt;/b&gt;&lt;/span&gt;&lt;/div&gt;&lt;div style=&quot;&quot;&gt;&lt;span style=&quot;font-size: 28px;&quot;&gt;&lt;b&gt;mcnp_cards.py&lt;/b&gt;&lt;/span&gt;&lt;/div&gt;&lt;div style=&quot;&quot;&gt;&lt;span style=&quot;background-color: initial;&quot;&gt;&lt;br&gt;&lt;/span&gt;&lt;/div&gt;&lt;div style=&quot;&quot;&gt;&lt;span style=&quot;background-color: initial;&quot;&gt;&lt;font style=&quot;font-size: 18px;&quot;&gt;This UML diagram describes the attributes and methods found inside the mcnp_cards.py file necessary for creating Python OOP representations of MCNP Cards. The structure defined here is used by MUSE to store information parsed from the template input deck and manipulate data as the user performs edits.&lt;/font&gt;&lt;/span&gt;&lt;/div&gt;" style="text;whiteSpace=wrap;html=1;align=center;" parent="WIyWlLk6GJQsqaUBKTNV-1" vertex="1">
          <mxGeometry x="591" y="42" width="216" height="410" as="geometry" />
        </mxCell>
        <mxCell id="FYcqL7-mcXaFGMRmdPGg-0" value="RegularCell" style="swimlane;fontStyle=1;align=center;verticalAlign=top;childLayout=stackLayout;horizontal=1;startSize=26;horizontalStack=0;resizeParent=1;resizeParentMax=0;resizeLast=0;collapsible=1;marginBottom=0;whiteSpace=wrap;html=1;" parent="WIyWlLk6GJQsqaUBKTNV-1" vertex="1">
          <mxGeometry x="180" y="383" width="160" height="170" as="geometry" />
        </mxCell>
        <mxCell id="5E6ZCyzv3T3u2Q4gBt_e-3" value="+number&lt;br&gt;+material&lt;br&gt;+density&lt;br&gt;+geom" style="text;html=1;align=center;verticalAlign=middle;resizable=0;points=[];autosize=1;strokeColor=none;fillColor=none;" parent="FYcqL7-mcXaFGMRmdPGg-0" vertex="1">
          <mxGeometry y="26" width="160" height="70" as="geometry" />
        </mxCell>
        <mxCell id="FYcqL7-mcXaFGMRmdPGg-1" value="" style="line;strokeWidth=1;fillColor=none;align=left;verticalAlign=middle;spacingTop=-1;spacingLeft=3;spacingRight=3;rotatable=0;labelPosition=right;points=[];portConstraint=eastwest;strokeColor=inherit;" parent="FYcqL7-mcXaFGMRmdPGg-0" vertex="1">
          <mxGeometry y="96" width="160" height="14" as="geometry" />
        </mxCell>
        <mxCell id="5E6ZCyzv3T3u2Q4gBt_e-6" value="+__init()__" style="text;html=1;align=center;verticalAlign=middle;resizable=0;points=[];autosize=1;strokeColor=none;fillColor=none;" parent="FYcqL7-mcXaFGMRmdPGg-0" vertex="1">
          <mxGeometry y="110" width="160" height="30" as="geometry" />
        </mxCell>
        <mxCell id="5E6ZCyzv3T3u2Q4gBt_e-5" value="+__str()__" style="text;html=1;align=center;verticalAlign=middle;resizable=0;points=[];autosize=1;strokeColor=none;fillColor=none;" parent="FYcqL7-mcXaFGMRmdPGg-0" vertex="1">
          <mxGeometry y="140" width="160" height="30" as="geometry" />
        </mxCell>
        <mxCell id="FYcqL7-mcXaFGMRmdPGg-2" value="KSrc" style="swimlane;fontStyle=1;align=center;verticalAlign=top;childLayout=stackLayout;horizontal=1;startSize=26;horizontalStack=0;resizeParent=1;resizeParentMax=0;resizeLast=0;collapsible=1;marginBottom=0;whiteSpace=wrap;html=1;" parent="WIyWlLk6GJQsqaUBKTNV-1" vertex="1">
          <mxGeometry x="219" y="788" width="160" height="90" as="geometry" />
        </mxCell>
        <mxCell id="FYcqL7-mcXaFGMRmdPGg-3" value="" style="line;strokeWidth=1;fillColor=none;align=left;verticalAlign=middle;spacingTop=-1;spacingLeft=3;spacingRight=3;rotatable=0;labelPosition=right;points=[];portConstraint=eastwest;strokeColor=inherit;" parent="FYcqL7-mcXaFGMRmdPGg-2" vertex="1">
          <mxGeometry y="26" width="160" height="64" as="geometry" />
        </mxCell>
        <mxCell id="5E6ZCyzv3T3u2Q4gBt_e-13" value="VoidCell" style="swimlane;fontStyle=1;align=center;verticalAlign=top;childLayout=stackLayout;horizontal=1;startSize=26;horizontalStack=0;resizeParent=1;resizeParentMax=0;resizeLast=0;collapsible=1;marginBottom=0;whiteSpace=wrap;html=1;" parent="WIyWlLk6GJQsqaUBKTNV-1" vertex="1">
          <mxGeometry x="359" y="385" width="160" height="140" as="geometry" />
        </mxCell>
        <mxCell id="5E6ZCyzv3T3u2Q4gBt_e-14" value="+number&lt;br&gt;+geom" style="text;html=1;align=center;verticalAlign=middle;resizable=0;points=[];autosize=1;strokeColor=none;fillColor=none;" parent="5E6ZCyzv3T3u2Q4gBt_e-13" vertex="1">
          <mxGeometry y="26" width="160" height="40" as="geometry" />
        </mxCell>
        <mxCell id="5E6ZCyzv3T3u2Q4gBt_e-15" value="" style="line;strokeWidth=1;fillColor=none;align=left;verticalAlign=middle;spacingTop=-1;spacingLeft=3;spacingRight=3;rotatable=0;labelPosition=right;points=[];portConstraint=eastwest;strokeColor=inherit;" parent="5E6ZCyzv3T3u2Q4gBt_e-13" vertex="1">
          <mxGeometry y="66" width="160" height="14" as="geometry" />
        </mxCell>
        <mxCell id="5E6ZCyzv3T3u2Q4gBt_e-16" value="+__init()__" style="text;html=1;align=center;verticalAlign=middle;resizable=0;points=[];autosize=1;strokeColor=none;fillColor=none;" parent="5E6ZCyzv3T3u2Q4gBt_e-13" vertex="1">
          <mxGeometry y="80" width="160" height="30" as="geometry" />
        </mxCell>
        <mxCell id="5E6ZCyzv3T3u2Q4gBt_e-17" value="+__str()__" style="text;html=1;align=center;verticalAlign=middle;resizable=0;points=[];autosize=1;strokeColor=none;fillColor=none;" parent="5E6ZCyzv3T3u2Q4gBt_e-13" vertex="1">
          <mxGeometry y="110" width="160" height="30" as="geometry" />
        </mxCell>
        <mxCell id="5E6ZCyzv3T3u2Q4gBt_e-18" value="LikeCell" style="swimlane;fontStyle=1;align=center;verticalAlign=top;childLayout=stackLayout;horizontal=1;startSize=26;horizontalStack=0;resizeParent=1;resizeParentMax=0;resizeLast=0;collapsible=1;marginBottom=0;whiteSpace=wrap;html=1;" parent="WIyWlLk6GJQsqaUBKTNV-1" vertex="1">
          <mxGeometry y="383" width="160" height="190" as="geometry" />
        </mxCell>
        <mxCell id="5E6ZCyzv3T3u2Q4gBt_e-19" value="+number&lt;br&gt;+material&lt;br&gt;+density&lt;br&gt;+geom&lt;br&gt;+changes" style="text;html=1;align=center;verticalAlign=middle;resizable=0;points=[];autosize=1;strokeColor=none;fillColor=none;" parent="5E6ZCyzv3T3u2Q4gBt_e-18" vertex="1">
          <mxGeometry y="26" width="160" height="90" as="geometry" />
        </mxCell>
        <mxCell id="5E6ZCyzv3T3u2Q4gBt_e-20" value="" style="line;strokeWidth=1;fillColor=none;align=left;verticalAlign=middle;spacingTop=-1;spacingLeft=3;spacingRight=3;rotatable=0;labelPosition=right;points=[];portConstraint=eastwest;strokeColor=inherit;" parent="5E6ZCyzv3T3u2Q4gBt_e-18" vertex="1">
          <mxGeometry y="116" width="160" height="14" as="geometry" />
        </mxCell>
        <mxCell id="5E6ZCyzv3T3u2Q4gBt_e-21" value="+__init()__" style="text;html=1;align=center;verticalAlign=middle;resizable=0;points=[];autosize=1;strokeColor=none;fillColor=none;" parent="5E6ZCyzv3T3u2Q4gBt_e-18" vertex="1">
          <mxGeometry y="130" width="160" height="30" as="geometry" />
        </mxCell>
        <mxCell id="5E6ZCyzv3T3u2Q4gBt_e-22" value="+__str()__" style="text;html=1;align=center;verticalAlign=middle;resizable=0;points=[];autosize=1;strokeColor=none;fillColor=none;" parent="5E6ZCyzv3T3u2Q4gBt_e-18" vertex="1">
          <mxGeometry y="160" width="160" height="30" as="geometry" />
        </mxCell>
        <mxCell id="5E6ZCyzv3T3u2Q4gBt_e-29" value="+locations" style="text;html=1;align=center;verticalAlign=middle;resizable=0;points=[];autosize=1;strokeColor=none;fillColor=none;" parent="WIyWlLk6GJQsqaUBKTNV-1" vertex="1">
          <mxGeometry x="260" y="818" width="80" height="30" as="geometry" />
        </mxCell>
        <mxCell id="5E6ZCyzv3T3u2Q4gBt_e-33" value="+__str()__" style="text;html=1;align=center;verticalAlign=middle;resizable=0;points=[];autosize=1;strokeColor=none;fillColor=none;" parent="WIyWlLk6GJQsqaUBKTNV-1" vertex="1">
          <mxGeometry x="260" y="847" width="80" height="30" as="geometry" />
        </mxCell>
        <mxCell id="5E6ZCyzv3T3u2Q4gBt_e-36" value="+__str()__" style="text;html=1;align=center;verticalAlign=middle;resizable=0;points=[];autosize=1;strokeColor=none;fillColor=none;" parent="WIyWlLk6GJQsqaUBKTNV-1" vertex="1">
          <mxGeometry x="50" y="851" width="80" height="30" as="geometry" />
        </mxCell>
        <mxCell id="5E6ZCyzv3T3u2Q4gBt_e-39" value="+param" style="text;html=1;align=center;verticalAlign=middle;resizable=0;points=[];autosize=1;strokeColor=none;fillColor=none;" parent="WIyWlLk6GJQsqaUBKTNV-1" vertex="1">
          <mxGeometry x="60" y="818" width="60" height="30" as="geometry" />
        </mxCell>
      </root>
    </mxGraphModel>
  </diagram>
</mxfile>
